<svg xmlns="http://www.w3.org/2000/svg" version="1.1" id="Camada_1" x="0" y="0" viewBox="0 0 1722 570.625" xml:space="preserve" width="1722" height="570.625"><style type="text/css" id="style2">.st9{fill:#fff}</style><g id="g44" transform="translate(-99 -255.075)"><g id="g11"><linearGradient id="SVGID_1_" gradientUnits="userSpaceOnUse" x1="1538.39" y1="468.442" x2="1821" y2="468.442"><stop offset="0" id="stop4" stop-color="#1daafb"/><stop offset="1" id="stop6" stop-color="#106cc9"/></linearGradient><path d="M1821 349.3h-83.1l-144.1 124.3v-80.3l-55.4 47.8v141.8c0 4 4.7 6.2 7.8 3.6z" id="path9" fill="url(#SVGID_1_)"/></g><g id="g17"><path class="st9" d="M1069.7 487.8h.8c14.5 0 26.3 11.8 26.3 26.3s-11.8 26.3-26.3 26.3h-.8c-14.5 0-26.3-11.8-26.3-26.3s11.7-26.3 26.3-26.3z" id="path13" fill="#fff"/><path class="st9" id="rect15" fill="#fff" d="M1047.8 568.2h44.6v177.3h-44.6z"/></g><path class="st9" d="M1418.2 731.4c-.1-.9-1.1-1.3-1.8-.6-4.8 5.1-11.5 9.6-20.4 13.7-9.8 4.5-20.8 6.8-32.9 6.8-7.3 0-14.6-1.1-21.7-3.4-7.2-2.3-13.7-5.7-19.7-10.4-5.9-4.7-10.7-10.7-14.4-18-3.7-7.3-5.5-15.9-5.5-25.7 0-10.1 1.9-19.1 5.7-27 3.8-7.9 9.1-14.6 15.9-20 6.8-5.4 15-9.5 24.6-12.3 9.6-2.8 20.2-4.2 31.8-4.2 3.5 0 7.4.1 11.7.2 4.3.1 8.4.3 12.5.6 4.5.3 9.2.5 14 .8v-4.2c0-8.8-3.5-15.8-10.6-20.8s-16.3-7.6-27.6-7.6c-12.6 0-22.7 1.6-30.3 4.9-7.6 3.3-14.2 6.8-20 10.6l-20.4-30.3c3.5-2.5 7.6-5.1 12.1-7.8s9.8-5 15.9-7.2c6.1-2.1 13.1-3.9 21-5.3s17.2-2.1 27.8-2.1c11.3 0 21.6 1.6 30.8 4.7 9.2 3.2 17.1 7.6 23.6 13.2 6.6 5.7 11.6 12.5 15.1 20.4 3.5 7.9 5.3 16.6 5.3 25.9v119h-41.6zm-.1-65.9c-4.5-.3-9-.5-13.2-.8-3.5-.3-7.2-.4-11.2-.6-3.9-.1-7.3-.2-10-.2-14.4 0-24.5 2.8-30.3 8.5-5.8 5.7-8.7 12.2-8.7 19.5 0 7.6 2.7 13.5 8.1 17.8 6.4 5.1 16.5 7.2 30.3 6.2 8.8-1.6 16.1-4.8 22.1-9.6 3.8-3 6.9-6.6 9.3-10.6 2.4-4 3.6-8.3 3.6-12.9z" id="path19" fill="#fff"/><path class="st9" d="M99 493.4h48l122.2 179.3V493.4h46.5v252.1h-46.9L145.5 564.1v181.4H99z" id="path21" fill="#fff"/><path class="st9" d="M519.3 720l-6.2 6.2c-3.4 3.4-8.3 7-14.8 10.8-6.4 3.8-14.6 7.2-24.6 10.2-10 3-21.9 4.5-35.7 4.5-14.1 0-27-2.4-38.6-7.2-11.6-4.8-21.5-11.4-29.7-19.9-8.2-8.4-14.5-18.6-18.9-30.4-4.4-11.8-6.6-25-6.6-39.3 0-13.1 2.2-25.3 6.6-36.5 4.4-11.2 10.6-21 18.5-29.3s17.4-14.9 28.4-19.7c11-4.8 23.1-7.2 36.5-7.2 16.1 0 29.8 3 41 8.9s20.2 13.7 27 23.3c6.8 9.6 11.7 20.4 14.8 32.5 3 12.1 4.5 24.5 4.5 37.1v6.4H389.1c0 6.6 1.4 12.5 4.4 17.8 2.9 5.3 6.7 9.8 11.3 13.6 4.7 3.8 10 6.7 15.9 8.7 5.9 2 11.8 3 17.6 3 8.6 0 16.1-.8 22.5-2.5 6.4-1.6 11.9-3.5 16.5-5.7 4.5-2.1 8.3-4.4 11.2-6.8 2.9-2.4 5.1-4.3 6.6-5.9zm-43.5-81.7c0-4.5-.9-9.1-2.6-13.6-1.8-4.5-4.4-8.6-7.8-12.3-3.4-3.6-7.8-6.7-13.1-9.1-5.3-2.4-11.3-3.6-18.2-3.6-7.3 0-13.8 1.2-19.5 3.6-5.7 2.4-10.4 5.4-14.2 9.1-3.8 3.7-6.7 7.8-8.7 12.3-2 4.5-3 9.1-3 13.6z" id="path23" fill="#fff"/><path class="st9" d="M549.4 493.4H594v252.1h-44.6z" id="path25" fill="#fff"/><path class="st9" d="M621.9 656.8c0-12.9 2.3-25 7-36.5s11.2-21.5 19.5-30.1c8.3-8.6 18.3-15.4 30.1-20.4 11.8-5 24.6-7.6 38.8-7.6 14.1 0 27 2.5 38.8 7.6 11.8 5.1 21.7 11.9 30.1 20.4 8.3 8.6 14.8 18.6 19.5 30.1 4.7 11.5 7 23.6 7 36.5 0 12.9-2.3 25-7 36.5s-11.2 21.6-19.5 30.3-18.3 15.6-30.1 20.6c-11.7 5-24.7 7.6-38.8 7.6-14.1 0-27-2.5-38.8-7.6-11.7-5-21.7-11.9-30.1-20.6-8.3-8.7-14.8-18.8-19.5-30.3-4.6-11.5-7-23.7-7-36.5zm95.4 56.3c8.6 0 16-1.7 22.3-5.1 6.3-3.4 11.5-7.9 15.7-13.4 4.2-5.5 7.2-11.6 9.3-18.2 2-6.6 3-13.1 3-19.7 0-6.3-1-12.8-3-19.5-2-6.7-5.1-12.7-9.3-18.2-4.2-5.4-9.4-9.8-15.7-13.2-6.3-3.4-13.7-5.1-22.3-5.1-8.6 0-16 1.7-22.3 5.1-6.3 3.4-11.5 7.8-15.7 13.2-4.2 5.4-7.2 11.5-9.3 18.2-2 6.7-3 13.2-3 19.5 0 6.6 1 13.1 3 19.7s5.1 12.6 9.3 18.2c4.2 5.5 9.4 10 15.7 13.4 6.2 3.4 13.7 5.1 22.3 5.1z" id="path27" fill="#fff"/><path class="st9" d="M872 774.4c7.1 4.8 14.7 8.3 22.9 10.4 8.2 2.1 17.8 3.2 28.9 3.2 11.6 0 21.3-3.5 29.1-10.6 7.8-7.1 11.7-16.9 11.7-29.5v-19.3c-6.1 5.1-12.7 9.1-19.9 12.3-7.2 3.2-16.7 4.7-28.6 4.7-12.9 0-24.3-2.1-34.2-6.4-10-4.3-18.5-10.3-25.5-18-7.1-7.7-12.4-16.8-16.1-27.2-3.7-10.5-5.5-22-5.5-34.6 0-13.1 2.3-25.5 7-37.1 4.7-11.6 11.3-21.7 20-30.3 8.7-8.6 19.2-15.3 31.6-20.2 12.4-4.9 26.2-7.4 41.6-7.4 15.4 0 29.6 1.3 42.5 3.8 13 2.5 23.5 5.2 31.6 7.9v172.5c0 12.4-2.1 23.3-6.4 32.9-4.3 9.6-10.2 17.6-17.8 24.2-7.6 6.6-16.5 11.5-26.9 14.9-10.3 3.4-21.6 5.1-33.7 5.1-9.3 0-17.6-.4-24.8-1.3-7.2-.9-13.6-2.1-19.3-3.6-5.7-1.5-10.8-3.4-15.5-5.7-4.7-2.3-9-4.9-13.1-7.9zm92.6-167.5c-3.5-1.3-7.2-2.2-11-2.8-3.8-.6-9.7-1-17.8-1-9.1 0-17 1.5-23.8 4.5-6.8 3-12.6 7.1-17.4 12.1-4.8 5-8.4 10.9-10.8 17.6-2.4 6.7-3.6 13.7-3.6 21 0 13.6 3.4 25.1 10.2 34.4 6.8 9.3 17.8 14 32.9 14 13.6 0 23.9-2.9 30.8-8.7 6.9-5.8 10.4-15 10.4-27.6z" id="path29" fill="#fff"/><path class="st9" d="M1284.8 722.2c-8.3 8.8-18.2 15.9-29.5 21.2-11.3 5.3-24.6 7.9-39.7 7.9-15.1 0-28.6-2.3-40.5-6.8-11.9-4.5-21.8-11-29.9-19.3-8.1-8.3-14.3-18.3-18.5-29.9-4.3-11.6-6.4-24.5-6.4-38.6 0-12.9 2.3-25 7-36.5s11.2-21.5 19.5-30.1c8.3-8.6 18.3-15.4 30.1-20.4 11.7-5 24.6-7.6 38.8-7.6 14.4 0 27.5 2.6 39.3 7.8 11.8 5.2 21.9 12.2 30.3 21l-28.4 28.7c-5-5.8-11-10.3-17.8-13.6-6.8-3.3-14.6-4.9-23.5-4.9-8.6 0-16 1.6-22.3 4.7-6.3 3.2-11.5 7.2-15.7 12.3-4.2 5-7.2 11-9.3 17.8-2 6.8-3 13.7-3 20.8 0 6.8 1 13.5 3 20 2 6.6 5.1 12.5 9.3 17.8 4.2 5.3 9.4 9.6 15.7 12.9 6.3 3.3 13.7 4.9 22.3 4.9 8.8 0 16.9-1.7 24.2-5.1 7.3-3.4 13.5-8 18.5-13.8z" id="path31" fill="#fff"/><path class="st9" d="M1549.2 731.8c-1.8-2.9-3.4-5-4.6-6.2-.7-.7-1.6-1.2-2.7-1.7 2.7-.2 4.9-1.1 6.5-2.8 1.6-1.7 2.4-3.7 2.4-6 0-1.6-.5-3.1-1.4-4.6-1-1.4-2.3-2.5-3.9-3-1.7-.6-4.3-.9-8-.9h-9.7c-.6 0-1 .5-1 1v30.2h5v-13.3h3c1.8 0 3.1.4 4 1.1 1.3 1 3.1 3.4 5.3 7.3l2.8 4.9h6.2zm-11.3-11.5h-6.1v-9.5h5.7c2.5 0 4.2.2 5.1.6.9.3 1.6.9 2.1 1.6.5.7.8 1.6.8 2.5 0 1.5-.5 2.6-1.6 3.5-1.1.8-3.1 1.3-6 1.3z" id="path33" fill="#fff"/><path class="st9" d="M1538.4 698.2c13.2 0 24 10.8 24 24s-10.8 24-24 24-24-10.8-24-24 10.8-24 24-24m0-5c-16.1 0-29.1 13-29.1 29.1s13 29.1 29.1 29.1 29.1-13 29.1-29.1-13-29.1-29.1-29.1z" id="path35" fill="#fff"/><linearGradient id="SVGID_2_" gradientUnits="userSpaceOnUse" x1="1377.69" y1="374.239" x2="1660.3" y2="374.239"><stop offset="0" id="stop37" stop-color="#179016"/><stop offset="1" id="stop39" stop-color="#8ae12b"/></linearGradient><path d="M1377.7 493.4h83.1l144.1-124.3v80.3l55.4-47.8V259.8c0-4-4.7-6.2-7.8-3.6z" id="path42" fill="url(#SVGID_2_)"/></g></svg>